<?xml version="1.0" encoding="utf-8"?>
<!-- Generator: Adobe Illustrator 23.0.3, SVG Export Plug-In . SVG Version: 6.00 Build 0)  -->
<svg version="1.1" id="Layer_1" xmlns="http://www.w3.org/2000/svg" xmlns:xlink="http://www.w3.org/1999/xlink" x="0px" y="0px"
	 viewBox="0 0 977.36 281.87" style="enable-background:new 0 0 977.36 281.87;" xml:space="preserve">
<style type="text/css">
	.st0{fill:#FFFFFF;}
	.st1{fill:none;}
</style>
<rect x="408.55" y="33.24" class="st0" width="24.72" height="226.4"/>
<path class="st0" d="M486.78,118.35h-9.23V67.99h9.49c6.5,0,9.76,3.69,9.76,11.08v22.67c0,5.28-0.7,9.36-2.1,12.26
	C493.28,116.89,490.64,118.35,486.78,118.35"/>
<path class="st0" d="M482.03,219.84l-4.48-0.27v-65.63h8.44c5.09,0,8.65,1.76,10.68,5.27c2.02,3.52,3.02,8.7,3.02,15.56v28.21
	C499.69,214.21,493.81,219.84,482.03,219.84"/>
<path class="st0" d="M497.73,33.24h68.92v226.4h-71.96c18.79,0,31.8-6.2,39-18.58c7.21-12.39,10.82-30.63,10.82-54.7
	c0-14.77-1.94-26.63-5.81-35.59c-3.87-8.96-10.54-14.67-20.03-17.13c15.46-4.22,23.19-17.13,23.19-38.75V84.86
	c0-18.28-3.74-31.46-11.2-39.53C523.66,37.75,512.67,33.72,497.73,33.24"/>
<path class="st0" d="M714.68,259.64h-56.03v-38.48h-46.66V33.24h101.54c-9.26,2.34-16.84,6.59-22.72,12.75
	c-9.5,9.92-14.24,24.65-14.24,44.15v107.81c0,20.21,4.74,35.9,14.24,47.06C696.93,252.22,704.89,257.09,714.68,259.64"/>
<path class="st0" d="M740.76,77.35c1.32,3.08,1.98,7.08,1.98,11.99v110.72c0,6.33-0.7,11.25-2.11,14.77
	c-1.41,3.52-4.14,5.27-8.17,5.27c-4.22,0-7.13-1.66-8.7-5.01c-1.59-3.34-2.38-8.26-2.38-14.76V89.87c0-11.42,3.78-17.13,11.33-17.13
	C736.75,72.74,739.44,74.28,740.76,77.35"/>
<path class="st0" d="M826.69,246.2c6.28,6.55,13.88,11.04,22.8,13.44h-99.18c9.75-2.54,17.68-7.36,23.79-14.5
	c9.49-11.08,14.24-26.79,14.24-47.19V90.14c0-19.51-4.75-34.23-14.24-44.15c-5.88-6.16-13.46-10.41-22.73-12.75h97.62
	c-10.05,2.61-17.96,7.61-23.75,14.98C816.28,59.66,811.8,76.6,811.8,99.1v104.39C811.8,221.6,816.76,235.82,826.69,246.2"/>
<path class="st0" d="M947.21,78.05v136.78c0,24.74-20.07,44.81-44.82,44.81h-16.13c24.87-5.91,37.31-24.18,37.31-54.83v-34.03h-45.6
	v32.18c0,11.42-3.52,17.13-10.55,17.13c-3.52,0-6.15-1.36-7.9-4.08c-1.76-2.72-2.65-7.07-2.65-13.05V89.34
	c0-5.44,0.74-9.58,2.24-12.38c1.49-2.81,4.25-4.22,8.3-4.22c3.86,0,6.59,1.23,8.17,3.69c1.59,2.46,2.38,6.94,2.38,13.44v19.97h45.07
	V84.33c0-17.22-5.1-30.4-15.29-39.53c-6.15-5.53-13.49-9.37-22.02-11.56h16.66C927.14,33.24,947.21,53.3,947.21,78.05"/>
<path class="st0" d="M97.33,83.58c0,33.92-12.51,52.31-35.57,52.31c-9.34,0-17.94-3.32-23.36-9.05
	c-8.14-8.74-12.66-23.97-12.66-42.96c0-19.6,4.52-34.97,12.66-43.72c5.58-5.88,14.02-9.04,23.82-9.04
	C84.82,31.12,97.33,49.82,97.33,83.58 M43.52,53.28c-3.32,6.94-5.13,17.64-5.13,30.15c0,14.17,2.11,25.32,6.18,32.41
	c4.07,6.93,9.04,9.95,16.88,9.95c8.59,0,14.17-3.62,18.09-12.06c3.32-6.93,5.13-17.64,5.13-30.3c0-27.74-7.84-42.21-22.91-42.21
	C52.86,41.22,47.43,44.84,43.52,53.28"/>
<path class="st0" d="M127.16,33.24v66.48c0,12.21,0.75,16.58,3.77,20.2c3.16,3.92,7.69,5.73,14.77,5.73
	c8.44,0,13.27-2.41,16.28-7.99c1.96-3.77,2.56-7.84,2.56-18.54V33.24H176v65.12c0,14.62-1.36,21.56-5.43,27.13
	c-4.97,6.93-13.57,10.4-25.32,10.4c-11.76,0-20.05-3.47-25.02-10.4c-3.77-5.28-5.28-12.81-5.28-25.78V33.24H127.16z"/>
<polygon class="st0" points="248.12,33.24 248.12,43.49 224,43.49 224,133.78 211.79,133.78 211.79,43.49 187.82,43.49 
	187.82,33.24 "/>
<polygon class="st0" points="313.97,33.24 313.97,43.49 289.85,43.49 289.85,133.78 277.64,133.78 277.64,43.49 253.68,43.49 
	253.68,33.24 "/>
<path class="st0" d="M351.28,33.24l26.68,100.54h-12.21l-7.39-28.79h-30.3l-7.23,28.79h-12.21l28.19-100.54H351.28z M343.29,45.14
	l-12.66,50.05h25.17L343.29,45.14z"/>
<polygon class="st0" points="227.69,159.1 227.69,169.35 203.57,169.35 203.57,259.64 191.36,259.64 191.36,169.35 167.39,169.35 
	167.39,159.1 "/>
<polygon class="st0" points="251.55,159.1 251.55,201.76 288.03,201.76 288.03,159.1 300.24,159.1 300.24,259.64 288.03,259.64 
	288.03,211.86 251.55,211.86 251.55,259.64 239.34,259.64 239.34,159.1 "/>
<polygon class="st0" points="376.45,159.1 376.45,169.2 334.09,169.2 334.09,202.51 367.56,202.51 367.56,212.61 334.09,212.61 
	334.09,249.54 377.66,249.54 377.66,259.64 321.89,259.64 321.89,159.1 "/>
<rect x="-473.53" y="-814.62" class="st1" width="1920" height="1920"/>
</svg>
